/* XPM */
static char * temp_xpm[] = {
"32 32 25 1",
" 	c None",
".	c #525970",
"+	c #13223F",
"@	c #D8DDEF",
"#	c #F3F5FD",
"$	c #9F9EC6",
"%	c #ED9185",
"&	c #000000",
"*	c #FEE4CD",
"=	c #EEEBE9",
"-	c #9C9C99",
";	c #6E1F09",
">	c #FF8F63",
",	c #FFFFFF",
"'	c #7B7991",
")	c #131225",
"!	c #FCBCA7",
"~	c #FF9D90",
"{	c #D2D0E4",
"]	c #282544",
"^	c #439F20",
"/	c #7E7A7A",
"(	c #9FBDCE",
"_	c #BFBFBF",
":	c #92829A",
"                                ",
"                                ",
"                                ",
"             ..++..             ",
"           ..@#..#@..           ",
"          .@##@##@##@.          ",
"          +#@@.....@#+          ",
"         +$..$@@@@@$.$+         ",
"         +.#@@@@@@@@@#$         ",
"         +.####@@####@$         ",
"         .@@@@@..@@@@@+         ",
"         +$@@@.%%.@@@@+         ",
"         &$$@+%**+$@.$$+        ",
"        &=&+++***++.%+$+        ",
"       &=-=&*;****;*+.+         ",
"       &=-=&*>****>*.@.         ",
"       &=-=&+**%%**+.@.         ",
"       &=-=&,++++++,'.@         ",
"       &&&&&),!!!!,)'&&&        ",
"       &~*~&{],,,,]{&~*~&       ",
"      &&***&&]]^^]]{&***&       ",
"       &~*~&)]^]]^])&~*~&       ",
"        &&&){]],,]]{)&&&        ",
"        &/&){,,,,,,{)'          ",
"        &&&))(,,,,())'          ",
"        ___:))(((()):___        ",
"       _____{{)))){{_____       ",
"       _______{{{{_______       ",
"        ________________        ",
"           __________           ",
"                                ",
"                                "};
