/* XPM */
static char * closeddoor_xpm[] = {
"32 32 6 1",
" 	c None",
".	c #9092A4",
"+	c #5A2800",
"@	c #2B1401",
"#	c #090909",
"$	c #E6C303",
"         ..............         ",
"       ..................       ",
"      ...+@@+++++@+++++...      ",
"     ..+++@@+++++@@++++@+..     ",
"     ..+++@@+++++@@++++@+..     ",
"    ..+++++@+++++@@++++@++..    ",
"    ..@++++@+++++@@++++@++..    ",
"    ..@@+++@@++++@@++++@@+..    ",
"    ........................    ",
"    ...##......##......##...    ",
"    ...##......##......##...    ",
"    ........................    ",
"    ..@@++@@+++++@+++++@@+..    ",
"    ..@+++@@++++@@+++++@++..    ",
"    ..@+++@@++++@@+++++@++..    ",
"    ..+++++@++++@@++++@@++..    ",
"    ..+++++@++++@@++++@@++..    ",
"    ..+...+@@+++@@++++@@++..    ",
"    ..+$+$+@@+++@@++++@@++..    ",
"    ..+$$$+@@++++@++++@@++..    ",
"    ..+++++@@++++@++++@@++..    ",
"    ..+++++@@++++@@+++@@++..    ",
"    ..+++++@+++++@@+++@@++..    ",
"    ..+++++@+++++@@++++@++..    ",
"    ........................    ",
"    ...##......##......##...    ",
"    ...##......##......##...    ",
"    ........................    ",
"    ..+++++@+++++@@+++@@++..    ",
"    ..++++@@+++++@++++@@++..    ",
"    ..@+++@@++++@@+++++@@+..    ",
"    ..@+++@@@+++@@+++++@@+..    "};
