/* XPM */
static char * coin_xpm[] = {
"32 32 4 1",
" 	c None",
".	c #FFC600",
"+	c #FFD648",
"@	c #584608",
"                                ",
"                                ",
"                                ",
"                                ",
"         ..............         ",
"       ..................       ",
"      ...........++++.....      ",
"     ............++++++....     ",
"     ............++++++....     ",
"    ................+++.....    ",
"    ...+++...@@@@@..........    ",
"    ...+++...@@@@@..........    ",
"    ...+++...@@@@@..........    ",
"    ...+++....@@@@....+++...    ",
"    ...+++....@@@@....+++...    ",
"    ...+++....@@@@....+++...    ",
"    ...+++....@@@@....+++...    ",
"    ...+++....@@@@....+++...    ",
"    ...+++....@@@@....+++...    ",
"    ...+++...@@@@@@...+++...    ",
"    ...+++..@@@@@@@@..+++...    ",
"    ...+++..@@@@@@@@..+++...    ",
"    ..................+++...    ",
"     .....+++..............     ",
"     .....+++..............     ",
"      ....+++.............      ",
"       ..................       ",
"         ..............         ",
"                                ",
"                                ",
"                                ",
"                                "};
