/* XPM */
static char * walk_left_xpm[] = {
"32 32 24 1",
" 	c None",
".	c #525970",
"+	c #D8DDEF",
"@	c #13223F",
"#	c #F3F5FD",
"$	c #9F9EC6",
"%	c #FEE4CD",
"&	c #6E1F09",
"*	c #000000",
"=	c #FF8F63",
"-	c #9C9C99",
";	c #EEEBE9",
">	c #ED9185",
",	c #282544",
"'	c #FCBCA7",
")	c #439F20",
"!	c #131225",
"~	c #FF9D90",
"{	c #7B7991",
"]	c #FFFFFF",
"^	c #9FBDCE",
"/	c #D2D0E4",
"(	c #92829A",
"_	c #BFBFBF",
"                                ",
"                                ",
"              .                 ",
"             .+.                ",
"            @@.+.@@             ",
"          @@+#.#.++@@           ",
"         @$+#+.+#.++$@          ",
"        @$++#+.#.++++@          ",
"        @++++#.+.++++$@         ",
"        @+@$+.+.++++++@         ",
"       @$@@+++.++++++$@         ",
"       @@%@$+++++++++$$@        ",
"        @%@$$$+++@++$+$@        ",
"         @%@@@@@@+$+$++@        ",
"         @%&%.+.++$++$$@        ",
"      ***@%=%@.@++$+@$$$@       ",
"      *-;;@>%.+.+$++$@$$@       ",
"      *;-;;@@@.@+@++$@@$@       ",
"      *;;-;,@+$@@'@+$@ @        ",
"       *;;-)@@@***!@$@          ",
"        *;,@++*~%~*@$@          ",
"         *,@$$*%%%*$@{          ",
"          ]@@@*~%~*@!!          ",
"          ^]]//***!!!(          ",
"        __/^]///!!!!!(__        ",
"       ____/,,/,!!!!(____       ",
"       _____//,,!!((_____       ",
"        ______//((______        ",
"           __________           ",
"                                ",
"                                ",
"                                "};
