/* XPM */
static char * openeddoor_xpm[] = {
"32 32 3 1",
" 	c None",
".	c #9092A4",
"+	c #090909",
"         ..............         ",
"       ...++++++++++++...       ",
"      ..++++++++++++++++..      ",
"     ..++++++++++++++++++..     ",
"     .++++++++++++++++++++.     ",
"    ..++++++++++++++++++++..    ",
"    .++++++++++++++++++++++.    ",
"    .++++++++++++++++++++++.    ",
"    .++++++++++++++++++++++.    ",
"    .++++++++++++++++++++++.    ",
"    .++++++++++++++++++++++.    ",
"    .++++++++++++++++++++++.    ",
"    .++++++++++++++++++++++.    ",
"    .++++++++++++++++++++++.    ",
"    .++++++++++++++++++++++.    ",
"    .++++++++++++++++++++++.    ",
"    .++++++++++++++++++++++.    ",
"    .++++++++++++++++++++++.    ",
"    .++++++++++++++++++++++.    ",
"    .++++++++++++++++++++++.    ",
"    .++++++++++++++++++++++.    ",
"    .++++++++++++++++++++++.    ",
"    .++++++++++++++++++++++.    ",
"    .++++++++++++++++++++++.    ",
"    .++++++++++++++++++++++.    ",
"    .++++++++++++++++++++++.    ",
"    .++++++++++++++++++++++.    ",
"    .++++++++++++++++++++++.    ",
"    .++++++++++++++++++++++.    ",
"    .++++++++++++++++++++++.    ",
"    .++++++++++++++++++++++.    ",
"    .++++++++++++++++++++++.    "};
