/* XPM */
static char * walk_up_xpm[] = {
"32 32 17 1",
" 	c None",
".	c #525970",
"+	c #D8DDEF",
"@	c #F3F5FD",
"#	c #13223F",
"$	c #9F9EC6",
"%	c #000000",
"&	c #EEEBE9",
"*	c #9C9C99",
"=	c #FF9D90",
"-	c #FFFFFF",
";	c #FEE4CD",
">	c #131225",
",	c #7B7991",
"'	c #D2D0E4",
")	c #92829A",
"!	c #BFBFBF",
"                                ",
"             ....               ",
"           ..+@@+..             ",
"          .+@@++@@+.            ",
"         .++######++.           ",
"        .+##++++++##+.          ",
"        .#++++++++++#.          ",
"        #++++++++++++#          ",
"        #+++$++++$+++#          ",
"        #++$++++++$++#          ",
"       ##++$+$+$++$++##         ",
"       #++$++$+$++$+++#  %%%%   ",
"       #++$++$++$++#++# %&&*%   ",
"       #++$+++++$++#$+#%&&*&%   ",
"       #++$++$++#$+#$+#&&*&&%   ",
"      #$+$$++$++$#+#$$+#*&&%    ",
"      #$+$#+$#++$#$+#$$#&&%     ",
"      ##$##+$#$++#$$####&%      ",
"      %=#=#$#-#$+##$$#=%%       ",
"      %;;;#$#>#$$#>###;%%       ",
"      %=;=##>>>##>>%=;=%        ",
"       %%%>,,,'',,,>%%%         ",
"         )>,,,>>,,,>)           ",
"       !!)>,,>>>>,,>)!!         ",
"      !!!!)>>>>>>>>)!!!!        ",
"      !!!!!))>>>>))!!!!!        ",
"       !!!!!!))))!!!!!!         ",
"          !!!!!!!!!!            ",
"                                ",
"                                ",
"                                ",
"                                "};
