/* XPM */
static char * walk_right_xpm[] = {
"32 32 21 1",
" 	c None",
".	c #525970",
"+	c #D8DDEF",
"@	c #13223F",
"#	c #F3F5FD",
"$	c #9F9EC6",
"%	c #FEE4CD",
"&	c #000000",
"*	c #EEEBE9",
"=	c #9C9C99",
"-	c #FCBCA7",
";	c #49454E",
">	c #131225",
",	c #D2D0E4",
"'	c #FF9D90",
")	c #282544",
"!	c #7B7991",
"~	c #92829A",
"{	c #FFFFFF",
"]	c #9FBDCE",
"^	c #BFBFBF",
"                                ",
"                 .              ",
"                .+.             ",
"             @@.+.@@            ",
"           @@++.#.#+@@          ",
"          @$++.#+.+#+$@         ",
"          @++++.#.+#++$@        ",
"         @$++++.+.#++++@        ",
"         @++++++.+.+$@+@        ",
"         @$++++++.+++@@$@       ",
"        @$$+++++++++$@%@@       ",
"        @$+$++@+++$$$@%@        ",
"        @++$+$+@@@@@@&&&&       ",
"        @$$++$++.+.%&**=&       ",
"       @$$$@+$++@.@&**=*&       ",
"       @$$@$++$+.+&**=**&       ",
"       @$@@$++@+&&**=**&        ",
"        @ @$+@-@&;;=**&         ",
"          @$@>,&&&;;*&          ",
"          @$@>&'%'&;&)          ",
"          !@$@&%%%&&&)          ",
"          >>@~&'%'&@@{          ",
"          ~>>>>&&&,{{]          ",
"        ^^~>>>>>,,,{],^^        ",
"       ^^^^~>>>>),)),^^^^       ",
"       ^^^^^~~>>)),,^^^^^       ",
"        ^^^^^^~~,,^^^^^^        ",
"           ^^^^^^^^^^           ",
"                                ",
"                                ",
"                                ",
"                                "};
